HIERARCHY
ROOT Hips
{
	OFFSET -224.689499 91.882057 -431.625488
	CHANNELS 6 Xposition Yposition Zposition Xrotation Yrotation Zrotation 
	JOINT RightUpLeg
	{
		OFFSET 0.103456 1.857840 10.548509
		CHANNELS 3 Xrotation Yrotation Zrotation
		JOINT RightLeg
		{
			OFFSET 43.500000 -0.000042 0.000010
			CHANNELS 3 Xrotation Yrotation Zrotation
			JOINT RightFoot
			{
				OFFSET 42.372192 0.000019 0.000000
				CHANNELS 3 Xrotation Yrotation Zrotation
				JOINT RightToe
				{
					OFFSET 17.299999 -0.000000 0.000003
					CHANNELS 3 Xrotation Yrotation Zrotation
					End Site
					{
						OFFSET 0.000000 0.000000 0.000000
					}
				}
			}
		}
	}
	JOINT LeftUpLeg
	{
		OFFSET 0.103456 1.857823 -10.548508
		CHANNELS 3 Xrotation Yrotation Zrotation
		JOINT LeftLeg
		{
			OFFSET 43.500042 -0.000027 0.000004
			CHANNELS 3 Xrotation Yrotation Zrotation
			JOINT LeftFoot
			{
				OFFSET 42.372261 0.000000 0.000010
				CHANNELS 3 Xrotation Yrotation Zrotation
				JOINT LeftToe
				{
					OFFSET 17.299994 -0.000006 0.000017
					CHANNELS 3 Xrotation Yrotation Zrotation
					End Site
					{
						OFFSET 0.000000 0.000000 0.000000
					}
				}
			}
		}
	}
	JOINT Spine
	{
		OFFSET 6.901967 -2.603732 -0.000003
		CHANNELS 3 Xrotation Yrotation Zrotation
		JOINT Spine1
		{
			OFFSET 12.588099 0.000010 0.000008
			CHANNELS 3 Xrotation Yrotation Zrotation
			JOINT Spine2
			{
				OFFSET 12.343201 -0.000018 -0.000005
				CHANNELS 3 Xrotation Yrotation Zrotation
				JOINT Neck
				{
					OFFSET 25.832890 0.000023 0.000007
					CHANNELS 3 Xrotation Yrotation Zrotation
					JOINT Head
					{
						OFFSET 11.766609 -0.000008 -0.000006
						CHANNELS 3 Xrotation Yrotation Zrotation
						End Site
						{
							OFFSET 0.000000 0.000000 0.000000
						}
					}
				}
				JOINT RightShoulder
				{
					OFFSET 19.745909 -1.480347 6.000101
					CHANNELS 3 Xrotation Yrotation Zrotation
					JOINT RightArm
					{
						OFFSET 11.284133 0.000018 -0.000020
						CHANNELS 3 Xrotation Yrotation Zrotation
						JOINT RightForeArm
						{
							OFFSET 33.000050 -0.000013 0.000019
							CHANNELS 3 Xrotation Yrotation Zrotation
							JOINT RightHand
							{
								OFFSET 25.200005 0.000032 0.000011
								CHANNELS 3 Xrotation Yrotation Zrotation
								End Site
								{
									OFFSET 0.000000 0.000000 0.000000
								}
							}
						}
					}
				}
				JOINT LeftShoulder
				{
					OFFSET 19.746101 -1.480358 -6.000078
					CHANNELS 3 Xrotation Yrotation Zrotation
					JOINT LeftArm
					{
						OFFSET 11.284140 -0.000000 -0.000001
						CHANNELS 3 Xrotation Yrotation Zrotation
						JOINT LeftForeArm
						{
							OFFSET 33.000103 0.000016 -0.000001
							CHANNELS 3 Xrotation Yrotation Zrotation
							JOINT LeftHand
							{
								OFFSET 25.199762 0.000123 0.000432
								CHANNELS 3 Xrotation Yrotation Zrotation
								End Site
								{
									OFFSET 0.000000 0.000000 0.000000
								}
							}
						}
					}
				}
			}
		}
	}
}
MOTION
Frames: 17
Frame Time: 0.033333
114.024597 87.853592 505.285400 87.190548 5.680230 22.443785 -165.825027 0.712706 173.509003 -13.846819 -6.132101 -4.639739 87.703973 3.018500 -1.980068 21.454560 0.003111 0.000017 156.124191 0.772003 -175.954238 -7.659060 2.181154 9.390671 65.109256 -5.350692 4.226506 21.454551 -0.003092 -0.000000 8.903168 -0.131324 -1.542247 7.795645 -0.158583 -3.089792 7.478066 -0.177362 -3.088781 5.680060 -0.941381 1.278656 -18.500583 -7.194154 3.940783 -155.345918 -75.095375 -26.663827 -16.161659 53.185310 16.774057 -39.051743 -17.356149 1.614222 7.877458 -4.059031 3.754424 -163.795217 74.905011 18.062874 -2.109709 -64.281854 -21.147910 -25.902587 14.955027 -1.153705 12.431418 2.036385 -26.664901 
111.125801 87.211143 506.660706 87.180405 5.660541 21.020018 -163.924772 1.194903 172.257466 -14.565469 -5.832180 -4.546841 88.623310 2.885855 -2.473275 21.454560 0.003104 0.000018 155.613388 -0.379195 -175.465183 -6.942905 1.678571 9.549077 67.759862 -5.924912 3.020443 21.454553 -0.003092 -0.000002 8.925233 -0.065182 -1.419864 7.838097 -0.034140 -2.840834 7.520419 -0.051426 -2.840583 5.492791 -0.958507 1.323228 -18.211588 -7.587720 4.110441 -156.140023 -75.135728 -25.851699 -16.850101 52.862860 15.413859 -39.257824 -17.399854 1.622448 7.960045 -3.792147 3.591238 -163.660608 74.767458 18.201807 -1.961404 -63.787424 -21.256592 -26.041281 14.843039 -1.148834 11.873676 1.725580 -29.357618 
108.135399 86.600540 507.958008 86.763292 5.135914 19.037170 -162.561385 1.188796 170.386883 -16.857399 -5.312882 -4.332553 89.214387 2.608944 -3.337511 21.454558 0.003102 0.000018 155.218959 -1.670897 -172.844726 -10.731225 1.771350 8.268028 64.995465 -6.591072 -1.287166 21.454553 -0.003092 -0.000001 8.990218 0.154039 -1.274507 7.963268 0.395332 -2.535386 7.645508 0.379879 -2.537730 5.173248 -0.888341 1.680489 -18.040903 -8.309988 4.745943 -155.749036 -74.717024 -26.260199 -16.810298 53.063658 14.419755 -39.664531 -17.616373 1.647247 7.784770 -3.479732 4.571024 -164.182489 74.676487 17.668193 -3.685738 -62.769432 -20.508278 -25.923425 14.688153 -1.137016 11.094893 1.101929 -30.166818 
104.914398 86.246246 509.207397 86.133002 4.444608 17.836795 -161.439635 0.881697 168.802538 -19.674123 -4.264532 -4.072575 87.923605 2.240346 -4.194733 21.454560 0.003112 0.000018 154.613312 -2.576003 -168.616935 -15.766360 1.097194 5.834133 63.945925 -6.607614 -5.833713 21.454553 -0.003092 0.000000 9.068113 0.487182 -1.343534 8.111378 1.067249 -2.649731 7.793600 1.051096 -2.656127 4.956563 -0.785430 2.168083 -18.019251 -8.983358 5.515053 -155.795044 -74.480918 -26.218395 -15.270169 53.936932 14.700676 -40.282697 -17.917844 1.683407 7.578778 -3.699112 5.416077 -164.288698 74.738211 17.558973 -6.044749 -62.012975 -18.923386 -26.339506 14.807934 -1.151524 10.758574 0.585028 -30.398081 
101.380600 86.032791 510.390594 85.356997 3.744845 17.431276 -161.101036 0.067504 167.179508 -24.157746 -2.817199 -3.485230 84.726851 1.610410 -4.703576 21.454557 0.003105 0.000017 154.776608 -3.375108 -168.796459 -20.103615 0.700223 6.667445 62.041238 -7.542398 -6.344244 21.454557 -0.003092 -0.000001 9.133843 0.890939 -1.481903 8.232114 1.884936 -2.897074 7.914279 1.867276 -2.908402 4.917418 -0.719098 2.441853 -17.841883 -9.350431 5.928838 -156.364012 -74.387392 -25.637562 -13.587661 55.094256 15.948183 -40.217964 -18.086694 1.692669 7.366423 -3.867213 5.466956 -163.641401 74.414672 18.224727 -7.881588 -61.156127 -17.162566 -27.368899 14.940293 -1.177519 10.740108 0.921800 -30.134388 
98.008873 86.022972 511.452789 84.951434 2.914694 17.057313 -163.085943 -0.952101 164.705408 -31.485109 -0.260357 -2.728580 79.200838 0.812476 -4.675227 21.454565 0.003103 0.000019 155.000502 -3.757598 -169.992125 -23.993503 2.113044 7.731818 63.089979 -9.416351 -9.261283 21.454553 -0.003092 0.000000 9.087159 1.261656 -1.512172 8.129952 2.626296 -2.932776 7.811939 2.608405 -2.948580 5.124658 -0.701969 2.457612 -17.530669 -9.127302 5.837156 -156.612058 -74.395500 -25.383423 -12.560659 56.452890 16.756134 -39.414279 -17.931051 1.661112 7.254193 -3.216759 5.797420 -162.953519 73.921587 18.934370 -9.512537 -60.319142 -15.728122 -28.350249 14.911671 -1.193122 10.701682 1.763716 -28.673961 
94.749931 86.269768 512.309998 84.463950 1.903326 16.227602 -166.775352 -3.013194 164.032826 -41.752308 0.471506 -3.372680 73.140364 1.010379 -4.622716 21.454553 0.003109 0.000017 156.014238 -4.726499 -170.197058 -26.850572 2.725777 7.683686 66.530277 -9.122504 -9.533354 21.454550 -0.003092 0.000000 9.056793 1.592830 -1.354668 8.066886 3.276081 -2.596121 7.748589 3.260212 -2.615864 5.541292 -0.635872 2.265225 -17.313566 -8.701860 5.473130 -156.984972 -74.451398 -25.000673 -12.346087 57.767650 16.869743 -38.275782 -17.633484 1.612210 7.076860 -2.080651 6.880297 -163.169613 73.673180 18.715147 -11.683319 -59.796011 -14.457909 -28.635969 14.902158 -1.197722 10.737250 2.656219 -25.707966 
91.471092 86.814842 513.049011 84.121368 1.028604 15.036620 -172.106738 -5.290209 163.509647 -53.845899 1.492473 -4.053262 67.904470 0.988969 -5.356141 21.454560 0.003108 0.000020 158.143222 -5.921004 -169.476091 -27.494016 2.559314 6.793670 69.014533 -8.305235 -9.775887 21.454557 -0.003092 0.000000 9.037115 1.827985 -1.118104 8.031275 3.729028 -2.107836 7.712664 3.716095 -2.130338 5.842856 -0.306767 2.088723 -17.403510 -8.552683 5.286882 -157.188006 -74.423223 -24.793085 -12.647122 58.944369 16.791752 -37.439928 -17.509361 1.583029 7.111491 -1.002087 8.700443 -164.469698 73.749480 17.381112 -15.156174 -59.385332 -12.322085 -28.310606 14.656710 -1.176082 11.020081 3.178863 -22.872435 
88.276222 87.486053 513.719971 83.933872 0.590924 13.614806 -177.886444 -6.760194 165.002317 -63.842188 1.455555 -4.792732 63.361766 1.859037 -3.985961 21.454563 0.003108 0.000017 160.804974 -6.684298 -168.812387 -27.065115 2.376269 5.547346 70.923400 -7.335942 -10.122701 21.454551 -0.003092 -0.000000 9.046596 1.890371 -0.861096 8.058161 3.836011 -1.589439 7.739437 3.826206 -1.612604 5.977039 -0.140734 1.922735 -17.510966 -8.030942 4.951914 -157.420055 -74.385726 -24.556292 -13.066558 59.729915 17.086386 -37.223298 -17.541780 1.579733 7.233012 -0.330194 10.326870 -166.112400 74.110831 15.694528 -19.874032 -59.168884 -9.696142 -27.899067 14.570943 -1.163215 11.571304 3.011844 -21.589507 
85.152687 88.142082 514.397278 83.810096 0.461952 12.023621 176.328683 -7.416701 166.391400 -71.485839 1.804916 -4.572220 67.766500 2.296814 -2.638898 21.454555 0.003111 0.000015 163.587224 -7.070296 -170.114372 -26.311678 2.945180 5.109606 72.455261 -6.883004 -10.147040 21.454553 -0.003092 0.000000 9.061037 1.824703 -0.607054 8.095896 3.687337 -1.085608 7.777137 3.680576 -1.107891 6.092628 -0.154851 1.766591 -17.625563 -7.613350 4.642488 -157.344964 -74.217218 -24.636489 -13.157948 60.100720 17.994207 -37.668784 -17.666788 1.598969 7.185701 0.106420 11.467683 -168.902409 74.647698 12.834351 -24.821145 -58.916904 -6.844381 -27.918050 14.555084 -1.162535 12.025236 2.559646 -22.915867 
81.989113 88.855904 515.044189 83.551921 0.620636 10.227722 171.108478 -7.654100 167.723819 -75.943200 2.068806 -4.472388 69.743724 2.532803 -1.795021 21.454558 0.003105 0.000017 166.929714 -7.425096 -172.501140 -24.747988 3.404201 5.205068 73.535169 -6.789867 -9.978497 21.454555 -0.003092 0.000000 9.103546 1.650940 -0.374950 8.188476 3.324237 -0.632490 7.869819 3.320220 -0.652582 6.397477 -0.364515 1.678575 -17.782654 -7.446720 4.476795 -156.378069 -73.773584 -25.635974 -12.977902 60.124871 19.014763 -38.608163 -17.760386 1.628990 7.013651 0.525308 12.184760 -171.923101 75.185848 9.742825 -30.120526 -58.485435 -4.076342 -28.245448 14.471900 -1.163065 11.945599 2.208856 -25.492564 
78.877853 89.386078 515.620728 83.407142 0.449129 8.357117 166.183898 -7.906404 169.586289 -77.669776 2.004699 -4.851891 69.009977 2.612521 -2.343696 21.454565 0.003106 0.000018 170.122459 -8.014099 -174.156765 -23.056485 3.340227 4.816834 74.499749 -6.370509 -9.838487 21.454553 -0.003092 -0.000000 9.083353 1.527732 -0.121267 8.154938 3.060206 -0.134719 7.836346 3.059200 -0.153218 6.898665 -0.936951 1.592785 -17.906453 -7.174039 4.231023 -155.467058 -73.254107 -26.581168 -12.275736 60.073604 20.281287 -39.822322 -17.849292 1.666605 6.920210 0.704138 12.293965 -174.517822 75.913837 7.093986 -35.164652 -58.144704 -2.045370 -29.146958 14.717015 -1.195321 11.482035 2.124880 -28.084329 
75.729317 89.737587 516.156982 83.361175 0.108514 6.606384 161.849064 -8.121094 171.743631 -76.683531 1.832674 -4.947093 68.461698 2.851533 -1.870066 21.454551 0.003109 0.000018 173.286052 -8.443099 -175.478174 -21.276251 3.517585 4.384205 75.512584 -5.974584 -9.856421 21.454551 -0.003092 0.000000 9.019748 1.450483 0.108405 8.033186 2.889966 0.317227 7.714661 2.891692 0.299747 7.386750 -1.660076 1.457003 -18.024362 -6.893169 3.916807 -154.890987 -72.793404 -27.182310 -11.184123 60.087414 21.485274 -41.123493 -17.888376 1.704358 6.793595 0.832439 12.056760 -176.792999 76.739887 4.778762 -39.510114 -57.848321 -0.266535 -31.023003 15.133389 -1.258410 10.905955 1.960707 -30.110373 
72.565979 89.932571 516.674805 83.411274 -0.252168 4.884705 158.327760 -8.176803 173.900209 -73.021730 1.606279 -4.856956 69.152114 2.998855 -1.321706 21.454555 0.003108 0.000017 176.268919 -8.606291 -176.553574 -19.699929 3.841727 3.667529 76.399655 -5.533011 -10.338731 21.454553 -0.003091 0.000000 8.945164 1.394035 0.332774 7.888954 2.762198 0.759901 7.570479 2.766600 0.743187 7.854969 -2.241389 1.319686 -18.339925 -6.824089 3.714459 -154.233034 -72.280504 -27.870170 -10.545051 60.153599 22.275547 -42.061312 -17.913973 1.732095 6.580627 0.941725 11.766301 -178.982976 77.327871 2.552792 -42.713920 -57.112082 0.130482 -33.657222 15.785479 -1.355796 10.361666 1.785636 -30.216583 
69.429718 89.953163 517.175293 83.507976 -0.664670 3.051269 155.853210 -8.100998 175.574261 -66.700991 1.527597 -5.190043 69.367476 3.257980 -1.322254 21.454553 0.003109 0.000018 178.922187 -8.642105 -177.976684 -18.626477 4.253161 3.077265 77.657892 -4.975399 -10.216032 21.454553 -0.003092 -0.000000 8.909984 1.363706 0.574117 7.823811 2.685565 1.239321 7.505406 2.692863 1.223066 7.987484 -2.829995 1.198984 -18.630140 -6.673631 3.490740 -153.241933 -71.686701 -28.902588 -10.596492 60.374378 22.448370 -42.585143 -17.978362 1.751118 6.402626 1.040617 11.616472 179.633770 77.586462 1.147103 -45.251899 -55.869499 0.593790 -36.714087 16.212788 -1.453950 9.763457 1.726418 -30.184498 
66.290489 89.855408 517.642395 83.523043 -1.019715 1.208801 154.824529 -7.894805 176.462636 -57.539112 1.513971 -5.858520 68.962337 3.710291 -1.475647 21.454553 0.003112 0.000019 -178.515409 -8.617295 -179.970977 -17.911712 4.613071 2.901759 79.025774 -4.713839 -10.163541 21.454551 -0.003092 0.000000 8.956895 1.351092 0.775935 7.922048 2.646004 1.642846 7.603717 2.655739 1.626826 7.955084 -3.476072 1.151882 -19.204107 -6.510629 3.346265 -152.316046 -71.142403 -29.869322 -10.941383 60.807938 22.080224 -42.758907 -17.903290 1.751144 6.288714 0.799026 11.502419 177.849001 77.808238 -0.667137 -47.199145 -54.429156 1.000925 -39.872810 16.613516 -1.559671 8.769018 1.864215 -29.850047 
63.152290 89.672974 518.014771 83.714862 -1.403041 -0.264526 154.948688 -7.733505 176.980925 -45.542513 1.291450 -6.220094 68.263486 3.742938 -2.215250 21.454555 0.003107 0.000018 -176.168528 -8.618393 177.857921 -17.170727 4.966575 3.049789 80.370706 -4.665751 -10.065872 21.454551 -0.003092 -0.000000 8.995924 1.378096 0.869502 8.002753 2.692876 1.832601 7.684462 2.703757 1.816296 7.829577 -4.069807 1.145840 -19.810421 -6.423448 3.276100 -151.761954 -70.830407 -30.448123 -10.994601 61.349777 21.969735 -42.719340 -17.814551 1.744199 6.323583 0.553086 11.363807 176.163788 78.040813 -2.378215 -48.826365 -53.146720 1.983201 -42.819494 16.797413 -1.651995 7.621788 2.034247 -29.882354 
